ISO-10303-21;
HEADER;
/* Generated by software containing ST-Developer
 * from STEP Tools, Inc. (www.steptools.com) 
 */

FILE_DESCRIPTION(
/* description */ (''),
/* implementation_level */ '2;1');

FILE_NAME(
/* name */ 'speaker-holder.step',
/* time_stamp */ '2026-08-11T15:49:19+04:00',
/* author */ (''),
/* organization */ (''),
/* preprocessor_version */ 'ST-DEVELOPER v20.1',
/* originating_system */ 'Autodesk Translation Framework v15.8.0.0',
/* authorisation */ '');

FILE_SCHEMA (('AUTOMOTIVE_DESIGN { 1 0 10303 214 3 1 1 }'));
ENDSEC;

DATA;
#10=MECHANICAL_DESIGN_GEOMETRIC_PRESENTATION_REPRESENTATION('',(#13),#510);
#11=SHAPE_REPRESENTATION_RELATIONSHIP('SRR','None',#517,#12);
#12=ADVANCED_BREP_SHAPE_REPRESENTATION('',(#14),#509);
#13=STYLED_ITEM('',(#526),#14);
#14=MANIFOLD_SOLID_BREP('Body1',#306);
#15=FACE_BOUND('',#56,.T.);
#16=FACE_BOUND('',#57,.T.);
#17=FACE_BOUND('',#60,.T.);
#18=FACE_BOUND('',#61,.T.);
#19=FACE_BOUND('',#63,.T.);
#20=FACE_BOUND('',#70,.T.);
#21=FACE_BOUND('',#71,.T.);
#22=FACE_BOUND('',#72,.T.);
#23=FACE_BOUND('',#73,.T.);
#24=FACE_BOUND('',#74,.T.);
#25=PLANE('',#332);
#26=PLANE('',#333);
#27=PLANE('',#334);
#28=PLANE('',#335);
#29=PLANE('',#336);
#30=PLANE('',#340);
#31=PLANE('',#341);
#32=PLANE('',#342);
#33=PLANE('',#343);
#34=PLANE('',#344);
#35=FACE_OUTER_BOUND('',#50,.T.);
#36=FACE_OUTER_BOUND('',#51,.T.);
#37=FACE_OUTER_BOUND('',#52,.T.);
#38=FACE_OUTER_BOUND('',#53,.T.);
#39=FACE_OUTER_BOUND('',#54,.T.);
#40=FACE_OUTER_BOUND('',#55,.T.);
#41=FACE_OUTER_BOUND('',#58,.T.);
#42=FACE_OUTER_BOUND('',#59,.T.);
#43=FACE_OUTER_BOUND('',#62,.T.);
#44=FACE_OUTER_BOUND('',#64,.T.);
#45=FACE_OUTER_BOUND('',#65,.T.);
#46=FACE_OUTER_BOUND('',#66,.T.);
#47=FACE_OUTER_BOUND('',#67,.T.);
#48=FACE_OUTER_BOUND('',#68,.T.);
#49=FACE_OUTER_BOUND('',#69,.T.);
#50=EDGE_LOOP('',(#208,#209,#210,#211));
#51=EDGE_LOOP('',(#212,#213,#214,#215));
#52=EDGE_LOOP('',(#216,#217,#218,#219));
#53=EDGE_LOOP('',(#220,#221,#222,#223));
#54=EDGE_LOOP('',(#224,#225,#226,#227));
#55=EDGE_LOOP('',(#228,#229,#230,#231));
#56=EDGE_LOOP('',(#232));
#57=EDGE_LOOP('',(#233));
#58=EDGE_LOOP('',(#234,#235,#236,#237));
#59=EDGE_LOOP('',(#238,#239,#240,#241));
#60=EDGE_LOOP('',(#242));
#61=EDGE_LOOP('',(#243));
#62=EDGE_LOOP('',(#244,#245,#246,#247));
#63=EDGE_LOOP('',(#248));
#64=EDGE_LOOP('',(#249,#250,#251,#252));
#65=EDGE_LOOP('',(#253,#254,#255,#256));
#66=EDGE_LOOP('',(#257,#258,#259,#260,#261,#262,#263,#264));
#67=EDGE_LOOP('',(#265,#266,#267,#268));
#68=EDGE_LOOP('',(#269,#270,#271,#272,#273,#274,#275,#276));
#69=EDGE_LOOP('',(#277,#278,#279,#280));
#70=EDGE_LOOP('',(#281));
#71=EDGE_LOOP('',(#282));
#72=EDGE_LOOP('',(#283));
#73=EDGE_LOOP('',(#284));
#74=EDGE_LOOP('',(#285));
#75=LINE('',#431,#104);
#76=LINE('',#437,#105);
#77=LINE('',#443,#106);
#78=LINE('',#449,#107);
#79=LINE('',#454,#108);
#80=LINE('',#456,#109);
#81=LINE('',#458,#110);
#82=LINE('',#459,#111);
#83=LINE('',#463,#112);
#84=LINE('',#464,#113);
#85=LINE('',#465,#114);
#86=LINE('',#469,#115);
#87=LINE('',#471,#116);
#88=LINE('',#473,#117);
#89=LINE('',#474,#118);
#90=LINE('',#477,#119);
#91=LINE('',#479,#120);
#92=LINE('',#480,#121);
#93=LINE('',#482,#122);
#94=LINE('',#483,#123);
#95=LINE('',#489,#124);
#96=LINE('',#492,#125);
#97=LINE('',#494,#126);
#98=LINE('',#495,#127);
#99=LINE('',#498,#128);
#100=LINE('',#499,#129);
#101=LINE('',#502,#130);
#102=LINE('',#503,#131);
#103=LINE('',#505,#132);
#104=VECTOR('',#351,1.5);
#105=VECTOR('',#358,1.5);
#106=VECTOR('',#365,1.5);
#107=VECTOR('',#372,1.5);
#108=VECTOR('',#377,10.);
#109=VECTOR('',#378,10.);
#110=VECTOR('',#379,10.);
#111=VECTOR('',#380,10.);
#112=VECTOR('',#383,10.);
#113=VECTOR('',#384,10.);
#114=VECTOR('',#385,10.);
#115=VECTOR('',#388,10.);
#116=VECTOR('',#389,10.);
#117=VECTOR('',#390,10.);
#118=VECTOR('',#391,10.);
#119=VECTOR('',#394,10.);
#120=VECTOR('',#395,10.);
#121=VECTOR('',#396,10.);
#122=VECTOR('',#399,10.);
#123=VECTOR('',#400,10.);
#124=VECTOR('',#407,10.9);
#125=VECTOR('',#410,10.);
#126=VECTOR('',#411,10.);
#127=VECTOR('',#412,10.);
#128=VECTOR('',#415,10.);
#129=VECTOR('',#416,10.);
#130=VECTOR('',#419,10.);
#131=VECTOR('',#420,10.);
#132=VECTOR('',#423,10.);
#133=CIRCLE('',#321,1.5);
#134=CIRCLE('',#322,1.5);
#135=CIRCLE('',#324,1.5);
#136=CIRCLE('',#325,1.5);
#137=CIRCLE('',#327,1.5);
#138=CIRCLE('',#328,1.5);
#139=CIRCLE('',#330,1.5);
#140=CIRCLE('',#331,1.5);
#141=CIRCLE('',#337,10.9);
#142=CIRCLE('',#339,10.9);
#143=VERTEX_POINT('',#428);
#144=VERTEX_POINT('',#430);
#145=VERTEX_POINT('',#434);
#146=VERTEX_POINT('',#436);
#147=VERTEX_POINT('',#440);
#148=VERTEX_POINT('',#442);
#149=VERTEX_POINT('',#446);
#150=VERTEX_POINT('',#448);
#151=VERTEX_POINT('',#452);
#152=VERTEX_POINT('',#453);
#153=VERTEX_POINT('',#455);
#154=VERTEX_POINT('',#457);
#155=VERTEX_POINT('',#461);
#156=VERTEX_POINT('',#462);
#157=VERTEX_POINT('',#467);
#158=VERTEX_POINT('',#468);
#159=VERTEX_POINT('',#470);
#160=VERTEX_POINT('',#472);
#161=VERTEX_POINT('',#476);
#162=VERTEX_POINT('',#478);
#163=VERTEX_POINT('',#484);
#164=VERTEX_POINT('',#487);
#165=VERTEX_POINT('',#491);
#166=VERTEX_POINT('',#493);
#167=VERTEX_POINT('',#497);
#168=VERTEX_POINT('',#501);
#169=EDGE_CURVE('',#143,#143,#133,.T.);
#170=EDGE_CURVE('',#143,#144,#75,.T.);
#171=EDGE_CURVE('',#144,#144,#134,.T.);
#172=EDGE_CURVE('',#145,#145,#135,.T.);
#173=EDGE_CURVE('',#145,#146,#76,.T.);
#174=EDGE_CURVE('',#146,#146,#136,.T.);
#175=EDGE_CURVE('',#147,#147,#137,.T.);
#176=EDGE_CURVE('',#147,#148,#77,.T.);
#177=EDGE_CURVE('',#148,#148,#138,.T.);
#178=EDGE_CURVE('',#149,#149,#139,.T.);
#179=EDGE_CURVE('',#149,#150,#78,.T.);
#180=EDGE_CURVE('',#150,#150,#140,.T.);
#181=EDGE_CURVE('',#151,#152,#79,.T.);
#182=EDGE_CURVE('',#151,#153,#80,.T.);
#183=EDGE_CURVE('',#154,#153,#81,.T.);
#184=EDGE_CURVE('',#152,#154,#82,.T.);
#185=EDGE_CURVE('',#155,#156,#83,.T.);
#186=EDGE_CURVE('',#156,#154,#84,.T.);
#187=EDGE_CURVE('',#153,#155,#85,.T.);
#188=EDGE_CURVE('',#157,#158,#86,.T.);
#189=EDGE_CURVE('',#157,#159,#87,.T.);
#190=EDGE_CURVE('',#160,#159,#88,.T.);
#191=EDGE_CURVE('',#158,#160,#89,.T.);
#192=EDGE_CURVE('',#161,#160,#90,.T.);
#193=EDGE_CURVE('',#159,#162,#91,.T.);
#194=EDGE_CURVE('',#162,#161,#92,.T.);
#195=EDGE_CURVE('',#152,#157,#93,.T.);
#196=EDGE_CURVE('',#158,#151,#94,.T.);
#197=EDGE_CURVE('',#163,#163,#141,.T.);
#198=EDGE_CURVE('',#164,#164,#142,.T.);
#199=EDGE_CURVE('',#164,#163,#95,.T.);
#200=EDGE_CURVE('',#165,#155,#96,.T.);
#201=EDGE_CURVE('',#166,#165,#97,.T.);
#202=EDGE_CURVE('',#156,#166,#98,.T.);
#203=EDGE_CURVE('',#167,#166,#99,.T.);
#204=EDGE_CURVE('',#162,#167,#100,.T.);
#205=EDGE_CURVE('',#168,#167,#101,.T.);
#206=EDGE_CURVE('',#161,#168,#102,.T.);
#207=EDGE_CURVE('',#165,#168,#103,.T.);
#208=ORIENTED_EDGE('',*,*,#169,.F.);
#209=ORIENTED_EDGE('',*,*,#170,.T.);
#210=ORIENTED_EDGE('',*,*,#171,.F.);
#211=ORIENTED_EDGE('',*,*,#170,.F.);
#212=ORIENTED_EDGE('',*,*,#172,.F.);
#213=ORIENTED_EDGE('',*,*,#173,.T.);
#214=ORIENTED_EDGE('',*,*,#174,.F.);
#215=ORIENTED_EDGE('',*,*,#173,.F.);
#216=ORIENTED_EDGE('',*,*,#175,.F.);
#217=ORIENTED_EDGE('',*,*,#176,.T.);
#218=ORIENTED_EDGE('',*,*,#177,.F.);
#219=ORIENTED_EDGE('',*,*,#176,.F.);
#220=ORIENTED_EDGE('',*,*,#178,.F.);
#221=ORIENTED_EDGE('',*,*,#179,.T.);
#222=ORIENTED_EDGE('',*,*,#180,.F.);
#223=ORIENTED_EDGE('',*,*,#179,.F.);
#224=ORIENTED_EDGE('',*,*,#181,.F.);
#225=ORIENTED_EDGE('',*,*,#182,.T.);
#226=ORIENTED_EDGE('',*,*,#183,.F.);
#227=ORIENTED_EDGE('',*,*,#184,.F.);
#228=ORIENTED_EDGE('',*,*,#185,.T.);
#229=ORIENTED_EDGE('',*,*,#186,.T.);
#230=ORIENTED_EDGE('',*,*,#183,.T.);
#231=ORIENTED_EDGE('',*,*,#187,.T.);
#232=ORIENTED_EDGE('',*,*,#169,.T.);
#233=ORIENTED_EDGE('',*,*,#175,.T.);
#234=ORIENTED_EDGE('',*,*,#188,.F.);
#235=ORIENTED_EDGE('',*,*,#189,.T.);
#236=ORIENTED_EDGE('',*,*,#190,.F.);
#237=ORIENTED_EDGE('',*,*,#191,.F.);
#238=ORIENTED_EDGE('',*,*,#192,.T.);
#239=ORIENTED_EDGE('',*,*,#190,.T.);
#240=ORIENTED_EDGE('',*,*,#193,.T.);
#241=ORIENTED_EDGE('',*,*,#194,.T.);
#242=ORIENTED_EDGE('',*,*,#172,.T.);
#243=ORIENTED_EDGE('',*,*,#178,.T.);
#244=ORIENTED_EDGE('',*,*,#181,.T.);
#245=ORIENTED_EDGE('',*,*,#195,.T.);
#246=ORIENTED_EDGE('',*,*,#188,.T.);
#247=ORIENTED_EDGE('',*,*,#196,.T.);
#248=ORIENTED_EDGE('',*,*,#197,.F.);
#249=ORIENTED_EDGE('',*,*,#198,.F.);
#250=ORIENTED_EDGE('',*,*,#199,.T.);
#251=ORIENTED_EDGE('',*,*,#197,.T.);
#252=ORIENTED_EDGE('',*,*,#199,.F.);
#253=ORIENTED_EDGE('',*,*,#200,.F.);
#254=ORIENTED_EDGE('',*,*,#201,.F.);
#255=ORIENTED_EDGE('',*,*,#202,.F.);
#256=ORIENTED_EDGE('',*,*,#185,.F.);
#257=ORIENTED_EDGE('',*,*,#202,.T.);
#258=ORIENTED_EDGE('',*,*,#203,.F.);
#259=ORIENTED_EDGE('',*,*,#204,.F.);
#260=ORIENTED_EDGE('',*,*,#193,.F.);
#261=ORIENTED_EDGE('',*,*,#189,.F.);
#262=ORIENTED_EDGE('',*,*,#195,.F.);
#263=ORIENTED_EDGE('',*,*,#184,.T.);
#264=ORIENTED_EDGE('',*,*,#186,.F.);
#265=ORIENTED_EDGE('',*,*,#204,.T.);
#266=ORIENTED_EDGE('',*,*,#205,.F.);
#267=ORIENTED_EDGE('',*,*,#206,.F.);
#268=ORIENTED_EDGE('',*,*,#194,.F.);
#269=ORIENTED_EDGE('',*,*,#206,.T.);
#270=ORIENTED_EDGE('',*,*,#207,.F.);
#271=ORIENTED_EDGE('',*,*,#200,.T.);
#272=ORIENTED_EDGE('',*,*,#187,.F.);
#273=ORIENTED_EDGE('',*,*,#182,.F.);
#274=ORIENTED_EDGE('',*,*,#196,.F.);
#275=ORIENTED_EDGE('',*,*,#191,.T.);
#276=ORIENTED_EDGE('',*,*,#192,.F.);
#277=ORIENTED_EDGE('',*,*,#207,.T.);
#278=ORIENTED_EDGE('',*,*,#205,.T.);
#279=ORIENTED_EDGE('',*,*,#203,.T.);
#280=ORIENTED_EDGE('',*,*,#201,.T.);
#281=ORIENTED_EDGE('',*,*,#198,.T.);
#282=ORIENTED_EDGE('',*,*,#180,.T.);
#283=ORIENTED_EDGE('',*,*,#177,.T.);
#284=ORIENTED_EDGE('',*,*,#174,.T.);
#285=ORIENTED_EDGE('',*,*,#171,.T.);
#286=CYLINDRICAL_SURFACE('',#320,1.5);
#287=CYLINDRICAL_SURFACE('',#323,1.5);
#288=CYLINDRICAL_SURFACE('',#326,1.5);
#289=CYLINDRICAL_SURFACE('',#329,1.5);
#290=CYLINDRICAL_SURFACE('',#338,10.9);
#291=ADVANCED_FACE('',(#35),#286,.F.);
#292=ADVANCED_FACE('',(#36),#287,.F.);
#293=ADVANCED_FACE('',(#37),#288,.F.);
#294=ADVANCED_FACE('',(#38),#289,.F.);
#295=ADVANCED_FACE('',(#39),#25,.T.);
#296=ADVANCED_FACE('',(#40,#15,#16),#26,.T.);
#297=ADVANCED_FACE('',(#41),#27,.T.);
#298=ADVANCED_FACE('',(#42,#17,#18),#28,.T.);
#299=ADVANCED_FACE('',(#43,#19),#29,.F.);
#300=ADVANCED_FACE('',(#44),#290,.F.);
#301=ADVANCED_FACE('',(#45),#30,.T.);
#302=ADVANCED_FACE('',(#46),#31,.T.);
#303=ADVANCED_FACE('',(#47),#32,.T.);
#304=ADVANCED_FACE('',(#48),#33,.T.);
#305=ADVANCED_FACE('',(#49,#20,#21,#22,#23,#24),#34,.T.);
#306=CLOSED_SHELL('',(#291,#292,#293,#294,#295,#296,#297,#298,#299,#300,
#301,#302,#303,#304,#305));
#307=DERIVED_UNIT_ELEMENT(#309,1.);
#308=DERIVED_UNIT_ELEMENT(#512,-3.);
#309=(
MASS_UNIT()
NAMED_UNIT(*)
SI_UNIT(.KILO.,.GRAM.)
);
#310=DERIVED_UNIT((#307,#308));
#311=MEASURE_REPRESENTATION_ITEM('density measure',
POSITIVE_RATIO_MEASURE(7850.),#310);
#312=PROPERTY_DEFINITION_REPRESENTATION(#317,#314);
#313=PROPERTY_DEFINITION_REPRESENTATION(#318,#315);
#314=REPRESENTATION('material name',(#316),#509);
#315=REPRESENTATION('density',(#311),#509);
#316=DESCRIPTIVE_REPRESENTATION_ITEM('Steel','Steel');
#317=PROPERTY_DEFINITION('material property','material name',#519);
#318=PROPERTY_DEFINITION('material property','density of part',#519);
#319=AXIS2_PLACEMENT_3D('',#426,#345,#346);
#320=AXIS2_PLACEMENT_3D('',#427,#347,#348);
#321=AXIS2_PLACEMENT_3D('',#429,#349,#350);
#322=AXIS2_PLACEMENT_3D('',#432,#352,#353);
#323=AXIS2_PLACEMENT_3D('',#433,#354,#355);
#324=AXIS2_PLACEMENT_3D('',#435,#356,#357);
#325=AXIS2_PLACEMENT_3D('',#438,#359,#360);
#326=AXIS2_PLACEMENT_3D('',#439,#361,#362);
#327=AXIS2_PLACEMENT_3D('',#441,#363,#364);
#328=AXIS2_PLACEMENT_3D('',#444,#366,#367);
#329=AXIS2_PLACEMENT_3D('',#445,#368,#369);
#330=AXIS2_PLACEMENT_3D('',#447,#370,#371);
#331=AXIS2_PLACEMENT_3D('',#450,#373,#374);
#332=AXIS2_PLACEMENT_3D('',#451,#375,#376);
#333=AXIS2_PLACEMENT_3D('',#460,#381,#382);
#334=AXIS2_PLACEMENT_3D('',#466,#386,#387);
#335=AXIS2_PLACEMENT_3D('',#475,#392,#393);
#336=AXIS2_PLACEMENT_3D('',#481,#397,#398);
#337=AXIS2_PLACEMENT_3D('',#485,#401,#402);
#338=AXIS2_PLACEMENT_3D('',#486,#403,#404);
#339=AXIS2_PLACEMENT_3D('',#488,#405,#406);
#340=AXIS2_PLACEMENT_3D('',#490,#408,#409);
#341=AXIS2_PLACEMENT_3D('',#496,#413,#414);
#342=AXIS2_PLACEMENT_3D('',#500,#417,#418);
#343=AXIS2_PLACEMENT_3D('',#504,#421,#422);
#344=AXIS2_PLACEMENT_3D('',#506,#424,#425);
#345=DIRECTION('axis',(0.,0.,1.));
#346=DIRECTION('refdir',(1.,0.,0.));
#347=DIRECTION('center_axis',(0.,0.,1.));
#348=DIRECTION('ref_axis',(-1.,0.,0.));
#349=DIRECTION('center_axis',(0.,0.,1.));
#350=DIRECTION('ref_axis',(-1.,0.,0.));
#351=DIRECTION('',(0.,0.,1.));
#352=DIRECTION('center_axis',(0.,0.,-1.));
#353=DIRECTION('ref_axis',(-1.,0.,0.));
#354=DIRECTION('center_axis',(0.,0.,1.));
#355=DIRECTION('ref_axis',(-1.,0.,0.));
#356=DIRECTION('center_axis',(0.,0.,1.));
#357=DIRECTION('ref_axis',(-1.,0.,0.));
#358=DIRECTION('',(0.,0.,1.));
#359=DIRECTION('center_axis',(0.,0.,-1.));
#360=DIRECTION('ref_axis',(-1.,0.,0.));
#361=DIRECTION('center_axis',(0.,0.,1.));
#362=DIRECTION('ref_axis',(-1.,0.,0.));
#363=DIRECTION('center_axis',(0.,0.,1.));
#364=DIRECTION('ref_axis',(-1.,0.,0.));
#365=DIRECTION('',(0.,0.,1.));
#366=DIRECTION('center_axis',(0.,0.,-1.));
#367=DIRECTION('ref_axis',(-1.,0.,0.));
#368=DIRECTION('center_axis',(0.,0.,1.));
#369=DIRECTION('ref_axis',(-1.,0.,0.));
#370=DIRECTION('center_axis',(0.,0.,1.));
#371=DIRECTION('ref_axis',(-1.,0.,0.));
#372=DIRECTION('',(0.,0.,1.));
#373=DIRECTION('center_axis',(0.,0.,-1.));
#374=DIRECTION('ref_axis',(-1.,0.,0.));
#375=DIRECTION('center_axis',(-1.,0.,0.));
#376=DIRECTION('ref_axis',(0.,1.,0.));
#377=DIRECTION('',(0.,-1.,0.));
#378=DIRECTION('',(0.,0.,-1.));
#379=DIRECTION('',(0.,1.,0.));
#380=DIRECTION('',(0.,0.,-1.));
#381=DIRECTION('center_axis',(0.,0.,-1.));
#382=DIRECTION('ref_axis',(-1.,0.,0.));
#383=DIRECTION('',(0.,-1.,0.));
#384=DIRECTION('',(-1.,0.,0.));
#385=DIRECTION('',(1.,0.,0.));
#386=DIRECTION('center_axis',(1.,0.,0.));
#387=DIRECTION('ref_axis',(0.,-1.,0.));
#388=DIRECTION('',(0.,1.,0.));
#389=DIRECTION('',(0.,0.,-1.));
#390=DIRECTION('',(0.,-1.,0.));
#391=DIRECTION('',(0.,0.,-1.));
#392=DIRECTION('center_axis',(0.,0.,-1.));
#393=DIRECTION('ref_axis',(-1.,0.,0.));
#394=DIRECTION('',(1.,-2.22044604925031E-16,0.));
#395=DIRECTION('',(-1.,0.,0.));
#396=DIRECTION('',(0.,1.,0.));
#397=DIRECTION('center_axis',(0.,0.,1.));
#398=DIRECTION('ref_axis',(1.,0.,0.));
#399=DIRECTION('',(-1.,0.,0.));
#400=DIRECTION('',(1.,0.,0.));
#401=DIRECTION('center_axis',(0.,0.,-1.));
#402=DIRECTION('ref_axis',(1.,0.,0.));
#403=DIRECTION('center_axis',(0.,0.,1.));
#404=DIRECTION('ref_axis',(1.,0.,0.));
#405=DIRECTION('center_axis',(0.,0.,-1.));
#406=DIRECTION('ref_axis',(1.,0.,0.));
#407=DIRECTION('',(0.,0.,-1.));
#408=DIRECTION('center_axis',(1.,-1.48029736616688E-16,0.));
#409=DIRECTION('ref_axis',(1.48029736616688E-16,1.,0.));
#410=DIRECTION('',(0.,0.,-1.));
#411=DIRECTION('',(1.48029736616688E-16,1.,0.));
#412=DIRECTION('',(0.,0.,1.));
#413=DIRECTION('center_axis',(0.,-1.,0.));
#414=DIRECTION('ref_axis',(1.,0.,0.));
#415=DIRECTION('',(1.,0.,0.));
#416=DIRECTION('',(0.,0.,1.));
#417=DIRECTION('center_axis',(-1.,-2.96059473233375E-16,0.));
#418=DIRECTION('ref_axis',(2.96059473233375E-16,-1.,0.));
#419=DIRECTION('',(2.96059473233375E-16,-1.,0.));
#420=DIRECTION('',(0.,0.,1.));
#421=DIRECTION('center_axis',(0.,1.,0.));
#422=DIRECTION('ref_axis',(-1.,0.,0.));
#423=DIRECTION('',(-1.,0.,0.));
#424=DIRECTION('center_axis',(0.,0.,1.));
#425=DIRECTION('ref_axis',(1.,0.,0.));
#426=CARTESIAN_POINT('',(0.,0.,0.));
#427=CARTESIAN_POINT('Origin',(32.5,10.,-2.));
#428=CARTESIAN_POINT('',(34.,10.,-2.));
#429=CARTESIAN_POINT('Origin',(32.5,10.,-2.));
#430=CARTESIAN_POINT('',(34.,10.,7.));
#431=CARTESIAN_POINT('',(34.,10.,-2.));
#432=CARTESIAN_POINT('Origin',(32.5,10.,7.));
#433=CARTESIAN_POINT('Origin',(-32.5,-10.,-2.));
#434=CARTESIAN_POINT('',(-31.,-10.,-2.));
#435=CARTESIAN_POINT('Origin',(-32.5,-10.,-2.));
#436=CARTESIAN_POINT('',(-31.,-10.,7.));
#437=CARTESIAN_POINT('',(-31.,-10.,-2.));
#438=CARTESIAN_POINT('Origin',(-32.5,-10.,7.));
#439=CARTESIAN_POINT('Origin',(32.5,-10.,-2.));
#440=CARTESIAN_POINT('',(34.,-10.,-2.));
#441=CARTESIAN_POINT('Origin',(32.5,-10.,-2.));
#442=CARTESIAN_POINT('',(34.,-10.,7.));
#443=CARTESIAN_POINT('',(34.,-10.,-2.));
#444=CARTESIAN_POINT('Origin',(32.5,-10.,7.));
#445=CARTESIAN_POINT('Origin',(-32.5,10.,-2.));
#446=CARTESIAN_POINT('',(-31.,10.,-2.));
#447=CARTESIAN_POINT('Origin',(-32.5,10.,-2.));
#448=CARTESIAN_POINT('',(-31.,10.,7.));
#449=CARTESIAN_POINT('',(-31.,10.,-2.));
#450=CARTESIAN_POINT('Origin',(-32.5,10.,7.));
#451=CARTESIAN_POINT('Origin',(27.5,-15.,0.));
#452=CARTESIAN_POINT('',(27.5,15.,0.));
#453=CARTESIAN_POINT('',(27.5,-15.,0.));
#454=CARTESIAN_POINT('',(27.5,-7.5,0.));
#455=CARTESIAN_POINT('',(27.5,15.,-2.));
#456=CARTESIAN_POINT('',(27.5,15.,0.));
#457=CARTESIAN_POINT('',(27.5,-15.,-2.));
#458=CARTESIAN_POINT('',(27.5,-15.,-2.));
#459=CARTESIAN_POINT('',(27.5,-15.,0.));
#460=CARTESIAN_POINT('Origin',(32.5,0.,-2.));
#461=CARTESIAN_POINT('',(37.5,15.,-2.));
#462=CARTESIAN_POINT('',(37.5,-15.,-2.));
#463=CARTESIAN_POINT('',(37.5,15.,-2.));
#464=CARTESIAN_POINT('',(37.5,-15.,-2.));
#465=CARTESIAN_POINT('',(27.5,15.,-2.));
#466=CARTESIAN_POINT('Origin',(-27.5,15.,0.));
#467=CARTESIAN_POINT('',(-27.5,-15.,0.));
#468=CARTESIAN_POINT('',(-27.5,15.,0.));
#469=CARTESIAN_POINT('',(-27.5,7.5,0.));
#470=CARTESIAN_POINT('',(-27.5,-15.,-2.));
#471=CARTESIAN_POINT('',(-27.5,-15.,0.));
#472=CARTESIAN_POINT('',(-27.5,15.,-2.));
#473=CARTESIAN_POINT('',(-27.5,-15.,-2.));
#474=CARTESIAN_POINT('',(-27.5,15.,0.));
#475=CARTESIAN_POINT('Origin',(-32.5,2.22044604925031E-15,-2.));
#476=CARTESIAN_POINT('',(-37.5,15.,-2.));
#477=CARTESIAN_POINT('',(-27.5,15.,-2.));
#478=CARTESIAN_POINT('',(-37.5,-15.,-2.));
#479=CARTESIAN_POINT('',(-37.5,-15.,-2.));
#480=CARTESIAN_POINT('',(-37.5,15.,-2.));
#481=CARTESIAN_POINT('Origin',(0.,0.,0.));
#482=CARTESIAN_POINT('',(37.5,-15.,0.));
#483=CARTESIAN_POINT('',(-37.5,15.,0.));
#484=CARTESIAN_POINT('',(-10.9,-1.33486501107062E-15,0.));
#485=CARTESIAN_POINT('Origin',(0.,0.,0.));
#486=CARTESIAN_POINT('Origin',(0.,0.,0.));
#487=CARTESIAN_POINT('',(-10.9,-1.33486501107062E-15,7.));
#488=CARTESIAN_POINT('Origin',(0.,0.,7.));
#489=CARTESIAN_POINT('',(-10.9,-1.33486501107062E-15,0.));
#490=CARTESIAN_POINT('Origin',(37.5,-15.,0.));
#491=CARTESIAN_POINT('',(37.5,15.,7.));
#492=CARTESIAN_POINT('',(37.5,15.,0.));
#493=CARTESIAN_POINT('',(37.5,-15.,7.));
#494=CARTESIAN_POINT('',(37.5,15.,7.));
#495=CARTESIAN_POINT('',(37.5,-15.,0.));
#496=CARTESIAN_POINT('Origin',(-37.5,-15.,0.));
#497=CARTESIAN_POINT('',(-37.5,-15.,7.));
#498=CARTESIAN_POINT('',(37.5,-15.,7.));
#499=CARTESIAN_POINT('',(-37.5,-15.,0.));
#500=CARTESIAN_POINT('Origin',(-37.5,15.,0.));
#501=CARTESIAN_POINT('',(-37.5,15.,7.));
#502=CARTESIAN_POINT('',(-37.5,-15.,7.));
#503=CARTESIAN_POINT('',(-37.5,15.,0.));
#504=CARTESIAN_POINT('Origin',(37.5,15.,0.));
#505=CARTESIAN_POINT('',(-37.5,15.,7.));
#506=CARTESIAN_POINT('Origin',(0.,0.,7.));
#507=UNCERTAINTY_MEASURE_WITH_UNIT(LENGTH_MEASURE(0.01),#511,
'DISTANCE_ACCURACY_VALUE',
'Maximum model space distance between geometric entities at asserted c
onnectivities');
#508=UNCERTAINTY_MEASURE_WITH_UNIT(LENGTH_MEASURE(0.01),#511,
'DISTANCE_ACCURACY_VALUE',
'Maximum model space distance between geometric entities at asserted c
onnectivities');
#509=(
GEOMETRIC_REPRESENTATION_CONTEXT(3)
GLOBAL_UNCERTAINTY_ASSIGNED_CONTEXT((#507))
GLOBAL_UNIT_ASSIGNED_CONTEXT((#511,#513,#514))
REPRESENTATION_CONTEXT('','3D')
);
#510=(
GEOMETRIC_REPRESENTATION_CONTEXT(3)
GLOBAL_UNCERTAINTY_ASSIGNED_CONTEXT((#508))
GLOBAL_UNIT_ASSIGNED_CONTEXT((#511,#513,#514))
REPRESENTATION_CONTEXT('','3D')
);
#511=(
LENGTH_UNIT()
NAMED_UNIT(*)
SI_UNIT(.MILLI.,.METRE.)
);
#512=(
LENGTH_UNIT()
NAMED_UNIT(*)
SI_UNIT($,.METRE.)
);
#513=(
NAMED_UNIT(*)
PLANE_ANGLE_UNIT()
SI_UNIT($,.RADIAN.)
);
#514=(
NAMED_UNIT(*)
SI_UNIT($,.STERADIAN.)
SOLID_ANGLE_UNIT()
);
#515=SHAPE_DEFINITION_REPRESENTATION(#516,#517);
#516=PRODUCT_DEFINITION_SHAPE('',$,#519);
#517=SHAPE_REPRESENTATION('',(#319),#509);
#518=PRODUCT_DEFINITION_CONTEXT('part definition',#523,'design');
#519=PRODUCT_DEFINITION('2026-08-11-15-15-09-405','speaker-holder',#520,
#518);
#520=PRODUCT_DEFINITION_FORMATION('',$,#525);
#521=PRODUCT_RELATED_PRODUCT_CATEGORY('speaker-holder','speaker-holder',
(#525));
#522=APPLICATION_PROTOCOL_DEFINITION('international standard',
'automotive_design',2009,#523);
#523=APPLICATION_CONTEXT(
'Core Data for Automotive Mechanical Design Process');
#524=PRODUCT_CONTEXT('part definition',#523,'mechanical');
#525=PRODUCT('2026-08-11-15-15-09-405','speaker-holder',$,(#524));
#526=PRESENTATION_STYLE_ASSIGNMENT((#527));
#527=SURFACE_STYLE_USAGE(.BOTH.,#528);
#528=SURFACE_SIDE_STYLE('',(#529));
#529=SURFACE_STYLE_FILL_AREA(#530);
#530=FILL_AREA_STYLE('Steel - Satin',(#531));
#531=FILL_AREA_STYLE_COLOUR('Steel - Satin',#532);
#532=COLOUR_RGB('Steel - Satin',0.627450980392157,0.627450980392157,0.627450980392157);
ENDSEC;
END-ISO-10303-21;
